<svg xmlns="http://www.w3.org/2000/svg" viewBox="0 0 400 29900"><title>rajindrop</title><g><g><path d="M200 10298A2 2 0 00200 10302 2 2 0 00200 10298M200 10694A6 6 0 00200 10706 6 6 0 00200 10694M200 11090A10 10 0 00200 11110 10 10 0 00200 11090M200 11486A14 14 0 00200 11514 14 14 0 00200 11486M200 11882A18 18 0 00200 11918 18 18 0 00200 11882M200 12278A22 22 0 00200 12322 22 22 0 00200 12278M200 12674A26 26 0 00200 12726 26 26 0 00200 12674M200 13070A30 30 0 00200 13130 30 30 0 00200 13070M200 13466A34 34 0 00200 13534 34 34 0 00200 13466M200 13862A38 38 0 00200 13938 38 38 0 00200 13862M200 14258A42 42 0 00200 14342 42 42 0 00200 14258M200 14654A46 46 0 00200 14746 46 46 0 00200 14654M200 15050A50 50 0 00200 15150 50 50 0 00200 15050M200 15446A54 54 0 00200 15554 54 54 0 00200 15446M200 15842A58 58 0 00200 15958 58 58 0 00200 15842M200 16238A62 62 0 00200 16362 62 62 0 00200 16238M200 16634A66 66 0 00200 16766 66 66 0 00200 16634M200 17030A70 70 0 00200 17170 70 70 0 00200 17030M200 17426A74 74 0 00200 17574 74 74 0 00200 17426M200 17822A78 78 0 00200 17978 78 78 0 00200 17822M200 18218A82 82 0 00200 18382 82 82 0 00200 18218M200 18614A86 86 0 00200 18786 86 86 0 00200 18614M200 19010A90 90 0 00200 19190 90 90 0 00200 19010M200 19406A94 94 0 00200 19594 94 94 0 00200 19406M200 19802A98 98 0 00200 19998 98 98 0 00200 19802M200 20198A102 102 0 00200 20402 102 102 0 00200 20198M200 20594A106 106 0 00200 20806 106 106 0 00200 20594M200 20990A110 110 0 00200 21210 110 110 0 00200 20990M200 21386A114 114 0 00200 21614 114 114 0 00200 21386M200 21782A118 118 0 00200 22018 118 118 0 00200 21782M200 22178A122 122 0 00200 22422 122 122 0 00200 22178M200 22574A126 126 0 00200 22826 126 126 0 00200 22574M200 22970A130 130 0 00200 23230 130 130 0 00200 22970M200 23366A134 134 0 00200 23634 134 134 0 00200 23366M200 23762A138 138 0 00200 24038 138 138 0 00200 23762M200 24158A142 142 0 00200 24442 142 142 0 00200 24158M200 24554A146 146 0 00200 24846 146 146 0 00200 24554M200 24950A150 150 0 00200 25250 150 150 0 00200 24950M200 25346A154 154 0 00200 25654 154 154 0 00200 25346M200 25742A158 158 0 00200 26058 158 158 0 00200 25742M200 26138A162 162 0 00200 26462 162 162 0 00200 26138M200 26534A166 166 0 00200 26866 166 166 0 00200 26534M200 26930A170 170 0 00200 27270 170 170 0 00200 26930M200 27326A174 174 0 00200 27674 174 174 0 00200 27326M200 27722A178 178 0 00200 28078 178 178 0 00200 27722M200 28118A182 182 0 00200 28482 182 182 0 00200 28118M200 28514A186 186 0 00200 28886 186 186 0 00200 28514M200 28910A190 190 0 00200 29290 190 190 0 00200 28910M200 29306A194 194 0 00200 29694 194 194 0 00200 29306M200 29702A198 198 0 00200 30098 198 198 0 00200 29702" fill="white" /></g></g></svg>